<?xml version="1.0" encoding="UTF-8"?>
<svg id="Layer_2" data-name="Layer 2" xmlns="http://www.w3.org/2000/svg" xmlns:xlink="http://www.w3.org/1999/xlink" viewBox="0 0 397.48 397.48">
  <defs>
    <style>
      .cls-1 {
        fill: #fff;
      }

      .cls-2 {
        clip-path: url(#clippath);
      }
    </style>
    <clipPath id="clippath">
      <path class="cls-1" d="m185.02,347.66l-2.62-1.51-4.19-2.4-4.08-2.36-92.99-53.69-4.19-2.4-12.38-7.16v-58.08l-10.55-6.09v-20.06l17.37-10.03,17.37,10.03v20.06l-12.6,7.27v50.21l6.58,3.82,4.19,2.4,4.08,2.36,88.92,51.35,4.07,2.34,4.18,2.42,6.56,3.78,33.99-19.6v-15.48l17.37-10.03,17.37,10.03v20.06l-17.37,10.03-9.77-5.64-25.02,14.44-4.2,2.4-12.37,7.15-9.72-5.62Zm61.08-22.19l9.18-5.3v-10.6l-9.18-5.3-9.18,5.3v10.6l9.18,5.3Zm-174.72-110.92l9.18-5.3v-10.6l-9.18-5.3-9.18,5.3v10.6l9.18,5.3Zm230.88,68.03v-20.06l11.05-6.38v-109.33l-11.05-6.38v-12.25l-3.8-2.21-91.93-53.07-11.8,6.81-11.8-6.81-91.93,53.08-2.25,1.31v14.64l-17.37,10.03-17.37-10.03v-20.06l17.37-10.03,10.48,6.05,3.32-1.92,89.62-51.74,2.57-1.49v-13.12l17.37-10.03,17.37,10.03v13.12l94.99,54.84,12.54-7.24,17.37,10.03v20.06l-12.1,6.99v108.11l12.1,6.99v20.06l-17.37,10.03-17.37-10.03Zm17.37.57l9.18-5.3v-10.6l-9.18-5.3-9.18,5.3v10.6l9.18,5.3ZM71.38,142.5l9.18-5.3v-10.6l-9.18-5.3-9.18,5.3v10.6l9.18,5.3Zm248.25-1.49l9.18-5.3v-10.6l-9.18-5.3-9.18,5.3v10.6l9.18,5.3Zm-124.9-70.75l9.18-5.3v-10.6l-9.18-5.3-9.18,5.3v10.6l9.18,5.3Zm-79.35,175.37l24.15-11.55,56.01,26.8,56.01-26.8,24.15,11.55-80.15,38.35-80.15-38.35Zm0-42.62l24.15-11.55,56.01,26.8,56.01-26.8,24.15,11.55-80.15,38.35-80.15-38.35Zm0-42.62l80.15-38.35,80.15,38.35-80.15,38.35-80.15-38.35Z"/>
    </clipPath>
  </defs>
  <g id="Layer_2-2" data-name="Layer 2">
    <g>
      <path class="cls-1" d="m185.02,347.66l-2.62-1.51-4.19-2.4-4.08-2.36-92.99-53.69-4.19-2.4-12.38-7.16v-58.08l-10.55-6.09v-20.06l17.37-10.03,17.37,10.03v20.06l-12.6,7.27v50.21l6.58,3.82,4.19,2.4,4.08,2.36,88.92,51.35,4.07,2.34,4.18,2.42,6.56,3.78,33.99-19.6v-15.48l17.37-10.03,17.37,10.03v20.06l-17.37,10.03-9.77-5.64-25.02,14.44-4.2,2.4-12.37,7.15-9.72-5.62Zm61.08-22.19l9.18-5.3v-10.6l-9.18-5.3-9.18,5.3v10.6l9.18,5.3Zm-174.72-110.92l9.18-5.3v-10.6l-9.18-5.3-9.18,5.3v10.6l9.18,5.3Zm230.88,68.03v-20.06l11.05-6.38v-109.33l-11.05-6.38v-12.25l-3.8-2.21-91.93-53.07-11.8,6.81-11.8-6.81-91.93,53.08-2.25,1.31v14.64l-17.37,10.03-17.37-10.03v-20.06l17.37-10.03,10.48,6.05,3.32-1.92,89.62-51.74,2.57-1.49v-13.12l17.37-10.03,17.37,10.03v13.12l94.99,54.84,12.54-7.24,17.37,10.03v20.06l-12.1,6.99v108.11l12.1,6.99v20.06l-17.37,10.03-17.37-10.03Zm17.37.57l9.18-5.3v-10.6l-9.18-5.3-9.18,5.3v10.6l9.18,5.3ZM71.38,142.5l9.18-5.3v-10.6l-9.18-5.3-9.18,5.3v10.6l9.18,5.3Zm248.25-1.49l9.18-5.3v-10.6l-9.18-5.3-9.18,5.3v10.6l9.18,5.3Zm-124.9-70.75l9.18-5.3v-10.6l-9.18-5.3-9.18,5.3v10.6l9.18,5.3Zm-79.35,175.37l24.15-11.55,56.01,26.8,56.01-26.8,24.15,11.55-80.15,38.35-80.15-38.35Zm0-42.62l24.15-11.55,56.01,26.8,56.01-26.8,24.15,11.55-80.15,38.35-80.15-38.35Zm0-42.62l80.15-38.35,80.15,38.35-80.15,38.35-80.15-38.35Z"/>
      <g class="cls-2">
        <rect class="cls-1" width="397.48" height="397.48"/>
      </g>
    </g>
  </g>
</svg>